<svg 
 xmlns="http://www.w3.org/2000/svg"
 xmlns:xlink="http://www.w3.org/1999/xlink"
 width="361px" height="356px">
<path fill-rule="evenodd"  fill="rgb(8, 102, 153)"
 d="M180.1000,165.1000 C135.160,165.1000 98.000,128.840 98.000,82.1000 C98.000,37.160 135.160,0.000 180.1000,0.000 C181.262,90.1000 181.395,90.1000 180.1000,165.1000 ZM180.508,183.140 C179.1000,244.897 179.1000,311.135 180.151,355.1000 C138.601,355.1000 97.000,355.1000 97.000,355.1000 L97.000,233.000 C98.592,199.373 139.621,182.724 180.508,183.140 Z"/>
<path fill-rule="evenodd"  fill="rgb(204, 204, 204)"
 d="M359.1000,165.1000 C314.160,165.1000 277.000,128.840 277.000,82.1000 C277.000,37.160 314.160,0.000 359.1000,0.000 C360.262,90.1000 360.395,90.1000 359.1000,165.1000 ZM359.508,183.140 C358.1000,244.897 358.1000,311.135 359.151,355.1000 C317.601,355.1000 276.000,355.1000 276.000,355.1000 L276.000,233.000 C277.592,199.373 318.621,182.724 359.508,183.140 Z"/>
<path fill-rule="evenodd"  fill="rgb(53, 126, 30)"
 d="M179.849,355.1000 C179.1000,311.135 179.1000,244.897 179.492,183.140 C220.379,182.724 261.408,199.373 263.000,233.000 L263.000,355.1000 C263.000,355.1000 221.399,355.1000 179.849,355.1000 ZM178.1000,165.1000 C178.605,90.1000 178.738,90.1000 178.1000,0.000 C224.840,0.000 262.000,37.160 262.000,82.1000 C262.000,128.840 224.840,165.1000 178.1000,165.1000 Z"/>
<path fill-rule="evenodd"  fill="rgb(238, 108, 66)"
 d="M1.849,355.1000 C1.1000,311.135 1.1000,244.897 1.492,183.140 C42.379,182.724 83.408,199.373 85.000,233.000 L85.000,355.1000 C85.000,355.1000 43.399,355.1000 1.849,355.1000 ZM0.1000,165.1000 C0.605,90.1000 0.738,90.1000 0.1000,0.000 C46.840,0.000 84.000,37.160 84.000,82.1000 C84.000,128.840 46.840,165.1000 0.1000,165.1000 Z"/>
</svg>
